<svg width="42" height="30" viewBox="0 0 42 30" fill="none" xmlns="http://www.w3.org/2000/svg">
<path fill-rule="evenodd" clip-rule="evenodd" d="m 25.8177,21.21993 h 8.2471 v -0.734 h -8.2471 z m 0,-5.8716 h 8.2471 v -0.734 h -8.2471 z m 0,2.9358 h 8.2471 v -0.734 h -8.2471 z m 0,-5.8717 h 8.2471 v -0.7339 h -8.2471 z m 0,-2.9357998 h 8.2471 v -0.734 h -8.2471 z m 0,-2.9359996 h 8.2471 v -0.734 H 25.8177 Z M 7.94902,21.21993 h 8.24708 v -0.734 H 7.94902 Z m 0,-5.8716 h 8.24708 v -0.734 H 7.94902 Z m 0,2.9358 h 8.24708 v -0.734 H 7.94902 Z m 0,-5.8717 h 8.24708 v -0.7339 H 7.94902 Z m 0,-2.9357998 h 8.24708 v -0.734 H 7.94902 Z m 0,-2.9359996 h 8.24708 v -0.734 H 7.94902 Z M 38.1882,24.86563 c -8.5055,-1.9487 -14.1973,-0.6371 -16.4941,0.1321 V 3.6929606 c 2.749,-1.06131 5.6224,-1.5993 9.0765,-1.5993 3.492,0 6.7303,0.56442 7.4176,0.83378 z m 0,2.4367 c -2.0618,-0.5497 -5.1242,-0.8279 -7.6567,-0.8279 -4.3964,0 -6.7757,0.8272 -8.8374,1.3564 v -1.9458 c 2.5263,-0.7956 8.4113,-2.0698 16.4941,-0.1879 z m -17.8686,-1.6616 c -0.299,-0.1424 -6.4671,-2.9785 -16.49415,-1.1245 V 2.9274406 c 0.68726,-0.26936 3.9256,-0.83378 7.41755,-0.83378 3.4534,0 6.3275,0.53799 9.0766,1.5993 z m 0,2.1899 c -2.0618,-0.5292 -4.4418,-1.3563 -8.8381,-1.3563 -2.53188,0 -5.59428,0.2781 -7.65605,0.8279 v -1.956 c 9.90195,-1.8518 16.12225,1.0114 16.18685,1.0429 l 0.3073,0.1453 z M 39.4473,1.4851206 c -0.1519,-0.04183 -4.0026,-1.02461005 -8.7687,-1.02461005 -3.7441,0 -6.9839,0.61139005 -9.8875,1.80849005 -2.9202,-1.1971 -6.432,-1.80849005 -10.1769,-1.80849005 -4.76607,0 -8.30062,0.98278005 -8.45182,1.02461005 -0.33813,0.09248 -0.39861,0.41836 -0.39861,0.79048 V 28.30193 c 0,0.2474 -0.07078,0.4808 0.10859,0.6356 0.18006,0.1556 0.2426,0.2151 0.46665,0.163 2.87478,-0.6584 5.7097,-0.9923 8.42639,-0.9923 5.9633,0 9.4195,1.6228 9.4539,1.6389 0.0783,0.0374 0.1622,0.0484 0.246,0.0565 0.0069,0.0088 0.0227,0.0147 0.066,0.0147 7e-4,0 0.0014,7e-4 0.0021,7e-4 h 7e-4 6e-4 0.0021 c 0.1471,-7e-4 0.4845,-0.0447 0.6103,-0.1313 0.0453,-0.0309 0.0962,-0.0698 0.1477,-0.1094 1.0811,-0.4184 4.2789,-1.4701 9.0821,-1.4701 2.7167,0 5.6259,0.3339 8.5007,0.9923 0.2233,0.0528 0.6096,-0.0074 0.7903,-0.163 0.1794,-0.1548 0.5821,-0.3882 0.5821,-0.6356 V 2.2756006 c 0,-0.37212 -0.4653,-0.698 -0.8027,-0.79048 z" fill="black"/>
</svg>
